<?xml version="1.0" encoding="utf-8"?>
<!-- Generator: Adobe Illustrator 27.9.4, SVG Export Plug-In . SVG Version: 9.03 Build 54784)  -->
<svg version="1.1" xmlns="http://www.w3.org/2000/svg" xmlns:xlink="http://www.w3.org/1999/xlink" x="0px" y="0px"
	 viewBox="0 0 16238 16230" style="enable-background:new 0 0 16238 16230;" xml:space="preserve">
<style type="text/css">
	.st0{fill:#640026;}
	.st1{fill:#CC4D5A;}
	.st2{fill:none;}
	.st3{fill:#FFFFFF;}
	.st4{font-family:'FilosofiaUnicaseOT';}
	.st5{font-size:36.577px;}
	.st6{font-family:'FilosofiaOT';}
	.st7{font-size:40px;}
	.st8{letter-spacing:1;}
	.st9{display:none;}
	.st10{display:inline;}
	.st11{font-family:'FilosofiaOT-Italic';}
	.st12{font-size:25px;}
</style>
<g id="Background">
	<rect x="-210" y="-292" class="st0" width="16669" height="16669"/>
</g>
<g id="n-001">
	<g>
		<path class="st1" d="M1170.6,8424.6H505.8c-25.3,0-45.8-20.5-45.8-45.8v-334.2c0-25.3,20.5-45.8,45.8-45.8h664.8
			c25.3,0,45.8,20.5,45.8,45.8v334.2C1216.4,8404.1,1195.9,8424.6,1170.6,8424.6z"/>
	</g>
	<rect x="581.4" y="8150" class="st2" width="513.5" height="123.3"/>
	<text transform="matrix(1 0 0 1 597.9883 8173.6289)"><tspan x="0" y="0" class="st3 st4 st5">The first book of fashi</tspan><tspan x="463.7" y="0" class="st3 st4 st5">-</tspan><tspan x="214" y="43.9" class="st3 st4 st5">on</tspan><tspan x="84.8" y="91.9" class="st3 st6 st7 st8">Matthäus Schwarz </tspan></text>
</g>
<g id="n-002">
	<rect x="1682.8" y="8185.8" class="st2" width="404.2" height="24.2"/>
	<text transform="matrix(1 0 0 1 1684.4775 8209.4688)" class="st3 st6 st5">Was ist das Trachtenbuch? </text>
	<g>
		<path class="st1" d="M2162,8110.1c18.2,0,33.1,14.8,33.1,33.1v109.5c0,18.2-14.8,33.1-33.1,33.1h-554.3
			c-18.2,0-33.1-14.8-33.1-33.1v-109.5c0-18.2,14.8-33.1,33.1-33.1H2162 M2162,8098.1h-554.3c-24.9,0-45.1,20.2-45.1,45.1v109.5
			c0,24.9,20.2,45.1,45.1,45.1H2162c24.9,0,45.1-20.2,45.1-45.1v-109.5C2207.1,8118.3,2186.9,8098.1,2162,8098.1L2162,8098.1z"/>
	</g>
</g>
<g id="n-003">
	<g class="st9">
		<g class="st10">
			<path class="st1" d="M3090.8,8214.9h-291.2c-17.3,0-31.3-14-31.3-31.3l0,0c0-17.3,14-31.3,31.3-31.3h291.2
				c17.3,0,31.3,14,31.3,31.3l0,0C3122.2,8200.9,3108.1,8214.9,3090.8,8214.9z"/>
		</g>
		<g class="st10">
			<path class="st1" d="M3044.8,8258.9h-466.3c-17.3,0-31.3-14-31.3-31.3l0,0c0-17.3,14-31.3,31.3-31.3h466.3
				c17.3,0,31.3,14,31.3,31.3l0,0C3076.2,8244.9,3062.1,8258.9,3044.8,8258.9z"/>
		</g>
		<g class="st10">
			<path class="st1" d="M2729.8,8302.3h-126.4c-17.3,0-31.3-14-31.3-31.3v0c0-17.3,14-31.3,31.3-31.3h126.4
				c17.3,0,31.3,14,31.3,31.3v0C2761.2,8288.3,2747.1,8302.3,2729.8,8302.3z"/>
		</g>
	</g>
	<g>
		<path class="st1" d="M2790.8,8565.6h-46.3c-17.3,0-31.3-14-31.3-31.3l0,0c0-17.3,14-31.3,31.3-31.3h46.3c17.3,0,31.3,14,31.3,31.3
			l0,0C2822.1,8551.6,2808.1,8565.6,2790.8,8565.6z"/>
	</g>
	<rect x="2582.5" y="7730.9" class="st2" width="526.4" height="1051.1"/>
	<text transform="matrix(1 0 0 1 2582.5391 7754.4902)"><tspan x="0" y="0" class="st3 st6 st5">Das Trachtenbuch – oder auch  </tspan><tspan x="0" y="43.9" class="st3 st6 st5">„Klaidungsbüchlein“ – des Mat</tspan><tspan x="470.1" y="43.9" class="st3 st6 st5">-</tspan><tspan x="0" y="87.8" class="st3 st6 st5">thäus Schwarz ist ein im Jahre </tspan><tspan x="0" y="131.7" class="st3 st6 st5">1520 gestartetes Projekt von </tspan><tspan x="0" y="175.6" class="st3 st6 st5">Schwarz und einem hiesigen be</tspan><tspan x="472.9" y="175.6" class="st3 st6 st5">-</tspan><tspan x="0" y="219.5" class="st3 st6 st5">freundeten Künstler namens Nar</tspan><tspan x="497.7" y="219.5" class="st3 st6 st5">-</tspan><tspan x="0" y="263.4" class="st3 st6 st5">ziss Renner. Es ist ein  </tspan><tspan x="0" y="307.2" class="st3 st6 st5">16 x 10 cm, auf Pergament mit </tspan><tspan x="0" y="351.1" class="st3 st6 st5">Temperafarben illustriertes Ma</tspan><tspan x="475.8" y="351.1" class="st3 st6 st5">-</tspan><tspan x="0" y="395" class="st3 st6 st5">nuskript, in welchem Matthäus </tspan><tspan x="0" y="438.9" class="st3 st6 st5">Schwarz seine Outfits über die </tspan><tspan x="0" y="482.8" class="st3 st6 st5">Jahrzehnte visualisierte und mit </tspan><tspan x="0" y="526.7" class="st3 st6 st5">Datum, detailliertem Alter und </tspan><tspan x="0" y="570.6" class="st3 st6 st5">besonderen persönlichen Um</tspan><tspan x="448.2" y="570.6" class="st3 st6 st5">-</tspan><tspan x="0" y="614.5" class="st3 st6 st5">ständen, in Form eines kleinen </tspan><tspan x="0" y="658.4" class="st3 st6 st5">Textes auf den Buchseiten, doku</tspan><tspan x="486.3" y="658.4" class="st3 st6 st5">-</tspan><tspan x="0" y="702.3" class="st3 st6 st5">mentierte. Das Projekt lief 40 </tspan><tspan x="0" y="746.2" class="st3 st6 st5">Jahre, in denen er 137 Bilder in </tspan><tspan x="0" y="790.1" class="st3 st6 st5">einem in Leder gebundenen Buch </tspan><tspan x="0" y="834" class="st3 st6 st5">veröffentlichte. Bis zur Entd</tspan><tspan x="444.3" y="834" class="st3 st6 st5">-</tspan><tspan x="0" y="877.8" class="st3 st6 st5">ckung der Fotografie hat niemand </tspan><tspan x="0" y="921.7" class="st3 st6 st5">ein ähnliches Projekt gestartet, </tspan><tspan x="0" y="965.6" class="st3 st6 st5">und somit gilt das Buch als das </tspan><tspan x="0" y="1009.5" class="st3 st6 st5">„First Book of Fashion“.</tspan></text>
	<path class="st1" d="M3234.4,8418c-27.6-6.2-46.3,17.8-62.2,36.1c-8.5,9.9-17.9,18.5-30.8,22.1c-13.4,3.7-27.7,2.6-41.4,1.6
		c-6.4-0.5-6.4,9.5,0,10c13.3,1,26.9,1.8,40.1-1c12.3-2.6,22.9-8.9,31.8-17.6c15.9-15.7,32.9-47.7,59.9-41.6
		C3238.1,8429,3240.7,8419.4,3234.4,8418z"/>
</g>
<g id="n-004_00000007430026140035613240000000087188377367072660_">
	<rect x="2804.2" y="9095.9" class="st2" width="376.6" height="24.2"/>
	<text transform="matrix(1 0 0 1 2895.6807 9119.5723)" class="st3 st6 st5">Ein Beispiel:</text>
</g>
<g id="n-005_00000162343136061205228710000003127440103414167724_">
	<g>
		<g>
			
				<image style="overflow:visible;" width="1614" height="2718" xlink:href="FOOTAGE PRÄSENTATION/the-first-book-of-fashion_compress.jpg"  transform="matrix(0.24 0 0 0.24 3374.4775 9434.082)">
			</image>
			<g>
				<path class="st0" d="M3736.9,9434.5c7.5,0,13.6,6.1,13.6,13.6v614.3c0,7.5-6.1,13.6-13.6,13.6h-336.8c-7.5,0-13.6-6.1-13.6-13.6
					v-614.3c0-7.5,6.1-13.6,13.6-13.6H3736.9 M3736.9,9354.5h-336.8c-51.6,0-93.6,42-93.6,93.6v614.3c0,51.6,42,93.6,93.6,93.6
					h336.8c51.6,0,93.6-42,93.6-93.6v-614.3C3830.5,9396.5,3788.5,9354.5,3736.9,9354.5L3736.9,9354.5z"/>
			</g>
		</g>
		<rect x="3298.5" y="9226.3" class="st2" width="539.5" height="163.7"/>
		<text transform="matrix(1 0 0 1 3298.4775 9249.9395)"><tspan x="0" y="0" class="st3 st11 st5">“On October 2, 1516, this was my first </tspan><tspan x="0" y="43.9" class="st3 st11 st5">outfit back in German style in  </tspan><tspan x="0" y="87.8" class="st3 st11 st5">Augsburg, when I wanted to become a </tspan><tspan x="0" y="131.7" class="st3 st11 st5">huntsman.”</tspan></text>
		<rect x="3356" y="10140.3" class="st2" width="425" height="23.7"/>
		<text transform="matrix(1 0 0 1 3358.0352 10163.9395)" class="st3 st11 st5">“19 years, 7 months, 10 days.”</text>
	</g>
</g>
<g id="n-006_00000096742315343721552010000017342096670775603118_">
	
		<image style="overflow:visible;" width="1665" height="2507" xlink:href="FOOTAGE PRÄSENTATION/the first book of fashion cover.jpg"  transform="matrix(0.2384 0 0 0.2384 3179.3284 7913)">
	</image>
</g>
<g id="n-007_00000160882915888316036820000000994201552259534469_">
</g>
<g id="n-008">
	<g>
		<path class="st1" d="M5584.1,7651.8h-119.5c-17.3,0-31.3-14-31.3-31.3l0,0c0-17.3,14-31.3,31.3-31.3h119.5
			c17.3,0,31.3,14,31.3,31.3l0,0C5615.4,7637.8,5601.4,7651.8,5584.1,7651.8z"/>
	</g>
	<g>
		<path class="st1" d="M5473.3,8088.7h-185.7c-17.3,0-31.3-14-31.3-31.3l0,0c0-17.3,14-31.3,31.3-31.3h185.7
			c17.3,0,31.3,14,31.3,31.3l0,0C5504.6,8074.6,5490.6,8088.7,5473.3,8088.7z"/>
	</g>
	<rect x="5266.3" y="7561.3" class="st2" width="526.4" height="1351.7"/>
	<text transform="matrix(1 0 0 1 5266.2856 7584.9287)"><tspan x="0" y="0" class="st3 st6 st5">Matthäus Schwarz ist am 20. Feb</tspan><tspan x="490.2" y="0" class="st3 st6 st5">-</tspan><tspan x="0" y="43.9" class="st3 st6 st5">ruar 1497 in Augsburg geboren </tspan><tspan x="0" y="87.8" class="st3 st6 st5">und war der Sohn eines Wein</tspan><tspan x="440.1" y="87.8" class="st3 st6 st5">-</tspan><tspan x="0" y="131.7" class="st3 st6 st5">händlers. Auf eigenen Wunsch hin </tspan><tspan x="0" y="175.6" class="st3 st6 st5">schickte ihn sein Vater für zwei </tspan><tspan x="0" y="219.5" class="st3 st6 st5">Jahre nach Italien, wo er die Buch</tspan><tspan x="508" y="219.5" class="st3 st6 st5">-</tspan><tspan x="0" y="263.4" class="st3 st6 st5">haltung erlernte. Buchhalter </tspan><tspan x="0" y="307.2" class="st3 st6 st5">wurden als besonders intelligente, </tspan><tspan x="0" y="351.1" class="st3 st6 st5">gebildete Menschen wahrgenom</tspan><tspan x="488" y="351.1" class="st3 st6 st5">-</tspan><tspan x="0" y="395" class="st3 st6 st5">men. Als er aus Italien zurückkam, </tspan><tspan x="0" y="438.9" class="st3 st6 st5">fing er als Hauptbuchführer für </tspan><tspan x="0" y="482.8" class="st3 st6 st5">die Fugger-Familie an. Dies ver</tspan><tspan x="478.9" y="482.8" class="st3 st6 st5">-</tspan><tspan x="0" y="526.7" class="st3 st6 st5">schaffte ihm den nötigen Stand </tspan><tspan x="0" y="570.6" class="st3 st6 st5">und die monetären Grundlagen für </tspan><tspan x="0" y="614.5" class="st3 st6 st5">seine kommenden Projekte. Schon </tspan><tspan x="0" y="658.4" class="st3 st6 st5">im jungen Alter interessierte und </tspan><tspan x="0" y="702.3" class="st3 st6 st5">redete er viel – besonders mit äl</tspan><tspan x="485.2" y="702.3" class="st3 st6 st5">-</tspan><tspan x="0" y="746.2" class="st3 st6 st5">teren Menschen – über die Ent</tspan><tspan x="466.2" y="746.2" class="st3 st6 st5">-</tspan><tspan x="0" y="790.1" class="st3 st6 st5">wicklung der Mode. Aufwachsend </tspan><tspan x="0" y="834" class="st3 st6 st5">in Augsburg war Matthäus Schwarz </tspan><tspan x="0" y="877.8" class="st3 st6 st5">sicherlich sehr inspiriert von </tspan><tspan x="0" y="921.7" class="st3 st6 st5">diesem lebendigen Umfeld. Vor </tspan><tspan x="0" y="965.6" class="st3 st6 st5">allem zu besonderen Anlässen ließ </tspan><tspan x="0" y="1009.5" class="st3 st6 st5">sich Schwarz ausgefallene Outfits </tspan><tspan x="0" y="1053.4" class="st3 st6 st5">schneidern. Diesem Hobby muss </tspan><tspan x="0" y="1097.3" class="st3 st6 st5">er sehr viel Zeit gewidmet haben; </tspan><tspan x="0" y="1141.2" class="st3 st6 st5">der Prozess, diese Outfits herz</tspan><tspan x="475.3" y="1141.2" class="st3 st6 st5">-</tspan><tspan x="0" y="1185.1" class="st3 st6 st5">stellen, war lang. Vom „material </tspan><tspan x="0" y="1229" class="st3 st6 st5">sourcing“ über die Konzeption, </tspan><tspan x="0" y="1272.9" class="st3 st6 st5">musste Matthäus seine Kleidung </tspan><tspan x="0" y="1316.8" class="st3 st6 st5">selbst planen.</tspan></text>
	<g>
		<g>
			<path class="st1" d="M4829.1,8115.2c18.2,0,33.1,14.8,33.1,33.1v109.5c0,18.2-14.8,33.1-33.1,33.1h-554.2
				c-18.2,0-33.1-14.8-33.1-33.1v-109.5c0-18.2,14.8-33.1,33.1-33.1H4829.1 M4829.1,8103.2h-554.2c-24.9,0-45.1,20.2-45.1,45.1
				v109.5c0,24.9,20.2,45.1,45.1,45.1h554.2c24.9,0,45.1-20.2,45.1-45.1v-109.5C4874.2,8123.4,4854,8103.2,4829.1,8103.2
				L4829.1,8103.2z"/>
		</g>
		<rect x="4330.3" y="8190.9" class="st2" width="443.5" height="24.2"/>
		<text transform="matrix(1 0 0 1 4342.1611 8214.5137)" class="st3 st6 st5">Wer war Matthäus Schwarz?</text>
	</g>
</g>
<g id="n-009">
	<rect x="5061" y="7125.4" class="st2" width="376.6" height="76.7"/>
	<text transform="matrix(1 0 0 1 5128.0356 7149.0303)"><tspan x="0" y="0" class="st3 st11 st5">Augsburg und die </tspan><tspan x="13.1" y="43.9" class="st3 st11 st5">Fugger-Familie</tspan></text>
</g>
<g id="n-010">
	<rect x="5506.6" y="6145" class="st2" width="526.4" height="796.3"/>
	<text transform="matrix(1 0 0 1 5506.5566 6168.6138)"><tspan x="0" y="0" class="st3 st6 st5">Augsburg, Schwarz&apos; Heimatstadt, </tspan><tspan x="0" y="43.9" class="st3 st6 st5">war eine große süddeutsche Stadt </tspan><tspan x="0" y="87.8" class="st3 st6 st5">mit etwa 30.000 Einwohner*in</tspan><tspan x="470.7" y="87.8" class="st3 st6 st5">-</tspan><tspan x="0" y="131.7" class="st3 st6 st5">nen. Die Stadt war geprägt von Ge</tspan><tspan x="507.8" y="131.7" class="st3 st6 st5">-</tspan><tspan x="0" y="175.6" class="st3 st6 st5">werbe und Handel, farbenfrohen </tspan><tspan x="0" y="219.5" class="st3 st6 st5">Häusern, dekoriert mit histori</tspan><tspan x="460" y="219.5" class="st3 st6 st5">-</tspan><tspan x="0" y="263.4" class="st3 st6 st5">schen, mystischen oder realisti</tspan><tspan x="471.8" y="263.4" class="st3 st6 st5">-</tspan><tspan x="0" y="307.2" class="st3 st6 st5">schen Schauplätzen. Augsburg war </tspan><tspan x="0" y="351.1" class="st3 st6 st5">zudem politisches, finanzielles, </tspan><tspan x="0" y="395" class="st3 st6 st5">wirtschaftliches und künstleri</tspan><tspan x="455.5" y="395" class="st3 st6 st5">-</tspan><tspan x="0" y="438.9" class="st3 st6 st5">sches Zentrum. Kaiser und ihre </tspan><tspan x="0" y="482.8" class="st3 st6 st5">internationale Entourage ver</tspan><tspan x="435.7" y="482.8" class="st3 st6 st5">-</tspan><tspan x="0" y="526.7" class="st3 st6 st5">brachten hier oft Wochen und </tspan><tspan x="0" y="570.6" class="st3 st6 st5">stärkten den Markt vor Ort. Augs</tspan><tspan x="495.6" y="570.6" class="st3 st6 st5">-</tspan><tspan x="0" y="614.5" class="st3 st6 st5">burg war bekannt für die hochqua</tspan><tspan x="507.9" y="614.5" class="st3 st6 st5">-</tspan><tspan x="0" y="658.4" class="st3 st6 st5">litativen Drucke von Büchern, Ab</tspan><tspan x="502.2" y="658.4" class="st3 st6 st5">-</tspan><tspan x="0" y="702.3" class="st3 st6 st5">bildungen, Gestaltung, Metallar</tspan><tspan x="480.7" y="702.3" class="st3 st6 st5">-</tspan><tspan x="0" y="746.2" class="st3 st6 st5">beit, Malerei und Textilien.</tspan></text>
	<rect x="6072.6" y="6145" class="st2" width="526.4" height="999"/>
	<text transform="matrix(1 0 0 1 6072.5566 6168.6138)"><tspan x="0" y="0" class="st3 st6 st5">Die Fugger-Familie war eine Fa</tspan><tspan x="477.2" y="0" class="st3 st6 st5">-</tspan><tspan x="0" y="43.9" class="st3 st6 st5">milie aus Augsburg. Zu Beginn des </tspan><tspan x="0" y="87.8" class="st3 st6 st5">16. Jahrhunderts waren sie am </tspan><tspan x="0" y="131.7" class="st3 st6 st5">Zenith ihres finanziellen und pol</tspan><tspan x="505.7" y="131.7" class="st3 st6 st5">-</tspan><tspan x="0" y="175.6" class="st3 st6 st5">tischen Erfolgs. Jakob Fugger </tspan><tspan x="0" y="219.5" class="st3 st6 st5">übernahm das Geschäft der Fami</tspan><tspan x="496.9" y="219.5" class="st3 st6 st5">-</tspan><tspan x="0" y="263.4" class="st3 st6 st5">lie im Jahr 1510. Seine Vernetzun</tspan><tspan x="500.4" y="263.4" class="st3 st6 st5">-</tspan><tspan x="0" y="307.2" class="st3 st6 st5">gen streckten sich bis nach Trans</tspan><tspan x="502.6" y="307.2" class="st3 st6 st5">-</tspan><tspan x="0" y="351.1" class="st3 st6 st5">silvanien und dominierten somit </tspan><tspan x="0" y="395" class="st3 st6 st5">den europäischen Markt für </tspan><tspan x="0" y="438.9" class="st3 st6 st5">Kupfer sowie Silberproduktion. Er </tspan><tspan x="0" y="482.8" class="st3 st6 st5">hatte weitreichende Vernetzungen </tspan><tspan x="0" y="526.7" class="st3 st6 st5">zur Habsburg-Familie, zu Päpsten </tspan><tspan x="0" y="570.6" class="st3 st6 st5">und anderen mächtigen Familien. </tspan><tspan x="0" y="614.5" class="st3 st6 st5">Er war auch im Handel für Seide, </tspan><tspan x="0" y="658.4" class="st3 st6 st5">Damast, Samt, Baumwolle, Juwe</tspan><tspan x="482.8" y="658.4" class="st3 st6 st5">-</tspan><tspan x="0" y="702.3" class="st3 st6 st5">len, Gewürze und andere Luxusgü</tspan><tspan x="506" y="702.3" class="st3 st6 st5">-</tspan><tspan x="0" y="746.2" class="st3 st6 st5">ter tätig. Jede Person, die für </tspan><tspan x="0" y="790.1" class="st3 st6 st5">Fugger „den Reichen“ arbeitete, </tspan><tspan x="0" y="834" class="st3 st6 st5">war an der Schnittstelle eines un</tspan><tspan x="492.9" y="834" class="st3 st6 st5">-</tspan><tspan x="0" y="877.8" class="st3 st6 st5">glaublichen monetären Univer</tspan><tspan x="461.4" y="877.8" class="st3 st6 st5">-</tspan><tspan x="0" y="921.7" class="st3 st6 st5">sums, das unvergleichliche politi</tspan><tspan x="499.2" y="921.7" class="st3 st6 st5">-</tspan><tspan x="0" y="965.6" class="st3 st6 st5">sche Kontrolle erlangte.</tspan></text>
	<rect x="7112.6" y="6148" class="st2" width="487.4" height="96"/>
	<text transform="matrix(1 0 0 1 7112.5566 6164.1099)"><tspan x="0" y="0" class="st3 st11 st12">Albrecht Dürer, Bildnis Jakob Fugger der Reiche, </tspan><tspan x="0" y="30" class="st3 st11 st12">um 1520, Bayerische Staatsgemäldesammlungen – </tspan><tspan x="0" y="60" class="st3 st11 st12">Staatsgalerie in der Katharinenkirche Augsburg</tspan></text>
	
		<image style="overflow:visible;" width="2124" height="3000" xlink:href="2B2512F0.jpg"  transform="matrix(0.1815 0 0 0.1815 6679 6144)">
	</image>
</g>
<g id="n-011">
	<rect x="6345.2" y="7620.1" class="st2" width="526.4" height="1223.9"/>
	<text transform="matrix(1 0 0 1 6345.188 7643.7554)"><tspan x="0" y="0" class="st3 st6 st5">Das „First Book of Fashion“ war </tspan><tspan x="0" y="43.9" class="st3 st6 st5">zumindest zum damaligen Zeit</tspan><tspan x="457.5" y="43.9" class="st3 st6 st5">-</tspan><tspan x="0" y="87.8" class="st3 st6 st5">punkt nicht als großartiges Werk </tspan><tspan x="0" y="131.7" class="st3 st6 st5">angesehen, Matthäus Schwarz war </tspan><tspan x="0" y="175.6" class="st3 st6 st5">in den Augen der Deutschen, die </tspan><tspan x="0" y="219.5" class="st3 st6 st5">das Buch kannten, eher der alber</tspan><tspan x="498" y="219.5" class="st3 st6 st5">-</tspan><tspan x="0" y="263.4" class="st3 st6 st5">ne „Fashion-Fanatiker“ (S. 18). </tspan><tspan x="0" y="307.2" class="st3 st6 st5">Erst viel später, etwa ab dem 20. </tspan><tspan x="0" y="351.1" class="st3 st6 st5">Jahrhundert, wurde die Veröffen</tspan><tspan x="505.1" y="351.1" class="st3 st6 st5">-</tspan><tspan x="0" y="395" class="st3 st6 st5">lichung von Schwarz genutzt, um </tspan><tspan x="0" y="438.9" class="st3 st6 st5">Alltagsszenen zu rekonstruieren. </tspan><tspan x="0" y="482.8" class="st3 st6 st5">Auch Wissenschaftler*innen, die </tspan><tspan x="0" y="526.7" class="st3 st6 st5">sich mit der Historie der Mode </tspan><tspan x="0" y="570.6" class="st3 st6 st5">auseinandersetzten, haben auf ge</tspan><tspan x="501.6" y="570.6" class="st3 st6 st5">-</tspan><tspan x="0" y="614.5" class="st3 st6 st5">wisse Teile des Buches verwiesen. </tspan><tspan x="0" y="658.4" class="st3 st6 st5">August Fink, Direktor des Herzog </tspan><tspan x="0" y="702.3" class="st3 st6 st5">Anton Ulrich-Museums in Braun</tspan><tspan x="498.8" y="702.3" class="st3 st6 st5">-</tspan><tspan x="0" y="746.2" class="st3 st6 st5">schweig, betont den Wert des Ma</tspan><tspan x="495.6" y="746.2" class="st3 st6 st5">-</tspan><tspan x="0" y="790.1" class="st3 st6 st5">nuskripts für die Geschichte der </tspan><tspan x="0" y="834" class="st3 st6 st5">Mode (S. 18). Kritische Stimmen </tspan><tspan x="0" y="877.8" class="st3 st6 st5">behaupten jedoch, dass die Arbeit </tspan><tspan x="0" y="921.7" class="st3 st6 st5">von Matthäus Schwarz uns nicht in </tspan><tspan x="0" y="965.6" class="st3 st6 st5">die intime Welt eines Mannes aus </tspan><tspan x="0" y="1009.5" class="st3 st6 st5">dem 16. Jahrhundert führt, son</tspan><tspan x="469.9" y="1009.5" class="st3 st6 st5">-</tspan><tspan x="0" y="1053.4" class="st3 st6 st5">dern es sich womöglich um eine </tspan><tspan x="0" y="1097.3" class="st3 st6 st5">sehr kalkulierte Aufzeichnung von </tspan><tspan x="0" y="1141.2" class="st3 st6 st5">performativen sozialen Rollen </tspan><tspan x="0" y="1185.1" class="st3 st6 st5">handelt.</tspan></text>
	<rect x="6931.2" y="7620.1" class="st2" width="526.4" height="1134.9"/>
	<text transform="matrix(1 0 0 1 6931.188 7643.7554)"><tspan x="0" y="0" class="st3 st6 st5">Es ist also anzunehmen, dass Mat</tspan><tspan x="502.2" y="0" class="st3 st6 st5">-</tspan><tspan x="0" y="43.9" class="st3 st6 st5">thäus Schwarz dieses Projekt mit </tspan><tspan x="0" y="87.8" class="st3 st6 st5">starkem Selbstzweck veröffen</tspan><tspan x="458.9" y="87.8" class="st3 st6 st5">-</tspan><tspan x="0" y="131.7" class="st3 st6 st5">lichte, sei es, um seine soziale </tspan><tspan x="0" y="175.6" class="st3 st6 st5">Rolle zu stärken, oder einfach für </tspan><tspan x="0" y="219.5" class="st3 st6 st5">das modische Interesse und krea</tspan><tspan x="494.7" y="219.5" class="st3 st6 st5">-</tspan><tspan x="0" y="263.4" class="st3 st6 st5">tiven Output.</tspan><tspan x="0" y="351.1" class="st3 st6 st5">Die folgenden Seiten des Werkes </tspan><tspan x="0" y="395" class="st3 st6 st5">werden definitiv zeigen, dass er </tspan><tspan x="0" y="438.9" class="st3 st6 st5">sich zu vermarkten wusste und die </tspan><tspan x="0" y="482.8" class="st3 st6 st5">Arbeit mit einer gewissen Zunei</tspan><tspan x="481.6" y="482.8" class="st3 st6 st5">-</tspan><tspan x="0" y="526.7" class="st3 st6 st5">gung, Liebe zum Detail, aber auch </tspan><tspan x="0" y="570.6" class="st3 st6 st5">Humor umsetzte.</tspan></text>
</g>
<g id="n-012">
	<rect x="7893" y="8230.5" class="st2" width="376.6" height="111.8"/>
	<text transform="matrix(1 0 0 1 8024.7222 8254.1025)"><tspan x="0" y="0" class="st3 st6 st5">Wie hat</tspan><tspan x="-78.4" y="43.9" class="st3 st6 st5">Matthäus Schwarz </tspan><tspan x="-63.9" y="87.8" class="st3 st6 st5">sich inszeniert?</tspan></text>
	<g>
		<g>
			<path class="st1" d="M8260.9,8198.5c18.2,0,33.1,14.8,33.1,33.1v109.5c0,18.2-14.8,33.1-33.1,33.1h-359.2
				c-18.2,0-33.1-14.8-33.1-33.1v-109.5c0-18.2,14.8-33.1,33.1-33.1H8260.9 M8260.9,8186.5h-359.2c-24.9,0-45.1,20.2-45.1,45.1
				v109.5c0,24.9,20.2,45.1,45.1,45.1h359.2c24.9,0,45.1-20.2,45.1-45.1v-109.5C8306,8206.7,8285.8,8186.5,8260.9,8186.5
				L8260.9,8186.5z"/>
		</g>
	</g>
</g>
<g id="e-001-002">
	<path class="st1" d="M1519.3,8202.1c-83.8,4.1-167.7,6-251.6,5.7c-6.4,0-6.4,10,0,10c83.9,0.3,167.8-1.6,251.6-5.7
		C1525.7,8211.8,1525.7,8201.8,1519.3,8202.1z"/>
</g>
<g id="e-002-003">
	<path class="st1" d="M2563.7,7743.8c-47.7,2.3-85.9,33.5-128.4,51.4c-3.2,1.4-6.5,2.6-9.7,3.8c-12-3.7-24.6-5.5-37.3-5
		c-5.8,0.2-13.2,0.2-17.4,5c-3.6,4.2-2.8,10.1,1.3,13.6c8.4,7.2,23.9,3.9,33.7,2.1c6.8-1.2,13.4-3,19.8-5.1
		c12.4,4.3,24,10.8,33.9,19.6c35.7,31.4,48.6,82.7,40,128.5c-9.9,52.5-42.7,97.5-81,133.4c-45.5,42.7-100.2,74-155.4,102.3
		c-5.7,2.9-0.7,11.6,5,8.6c53.2-27.3,105.7-57.3,150.5-97.4c42.4-38,79.8-87,90.5-144.2c9.2-49.2-4.1-104.3-42.5-138.2
		c-8.2-7.2-17.4-13.2-27.3-17.7c35.6-15.1,67.5-39.6,105.6-48.1c6.1-1.4,12.3-2.2,18.5-2.5
		C2570.1,7753.4,2570.1,7743.4,2563.7,7743.8z M2402.6,7805.1c-5.6,1-11.4,1.5-17.1,1.4c-1.9,0-4.2,0-5.9-1
		c-0.4-0.2-0.7-0.4-0.9-0.4c0.2,0,0.4,0,0.7-0.2c1.5-1,4.5-0.8,6.2-0.9c6.5-0.4,13-0.2,19.4,0.6
		C2404.2,7804.8,2403.4,7805,2402.6,7805.1z"/>
</g>
<g id="e-003-004">
	<path class="st1" d="M2877.5,9101.9c-47.8-2.6-94.3-24.2-123.4-62.9c-14.8-19.7-23.5-42.6-28.3-66.7c-5.1-25-7.3-51-6.7-76.5
		c0.6-28.4,5.5-56.5,16.4-82.8c2.5-5.9-7.2-8.5-9.6-2.7c-20.6,49.6-20.2,106.1-10.9,158.3c4.5,25.4,12.8,50.2,27.7,71.5
		c13.7,19.6,31.7,36,52.4,47.9c25.1,14.5,53.6,22.2,82.5,23.8C2884,9112.2,2883.9,9102.2,2877.5,9101.9z"/>
</g>
<g id="e-004-005">
	<path class="st1" d="M3293.2,9638.9c-65-3.5-124.2-53.4-139.4-116.5c-4.6-19-4.2-38.8-8.3-57.9c2.3-0.8,4.5-1.8,6.8-2.8
		c33.6-15.7,54.8-48.5,67.5-82c7.3-19.3,12.4-39.4,17.3-59.4c5.3-21.4,9.9-43,12-64.9c3.7-37.6-0.9-77.7-21.5-110.2
		c-18.3-28.9-50.3-49.6-85.2-49.5c-8.4,0-16.7,1.4-24.7,4c-6.1,2-3.5,11.6,2.7,9.6c31.1-10.1,65.5,2.5,87.2,25.9
		c24,25.9,32.9,62.5,32.8,97.1c-0.1,39.9-10.5,80-21.5,118.2c-9.8,34.2-24.4,68.9-53.3,91.4c-6.9,5.4-14.6,9.8-22.7,13
		c-4.3-13.4-11.6-25.5-21.7-35.7c-11.9-11.8-26.6-20.4-42.1-26.5c-14.5-5.8-31.4-10.9-47.1-8.6c-16.6,2.4-27,15.8-23.5,32.6
		c3.4,16.8,18,29,32.5,36.5c28.3,14.5,63.3,22.4,94.7,14.5c4.4,20.6,4.1,42.8,9.9,63.1c16.2,57.3,66.7,103.9,125.1,115.6
		c7.4,1.5,14.9,2.4,22.4,2.8C3299.6,9649.2,3299.6,9639.2,3293.2,9638.9z M3118.7,9460.3c-19.3,1.4-38.6-2.8-56.7-9.3
		c-14.7-5.3-30.7-12.7-39.3-26.5c-4.1-6.6-7.1-15.8-2.7-23c3.6-6,11-7.9,17.5-8.2c15.1-0.6,31.3,5,44.8,11.2
		c14.2,6.5,27.3,15.4,37.3,27.4c6.6,7.9,10.9,16.7,13.7,25.9C3128.5,9459.1,3123.6,9460,3118.7,9460.3z"/>
</g>
<g id="e-005-006">
	<path class="st1" d="M4003.5,9047.1c3.2-6.8,6.2-13.7,9-20.7c42.5-104.7,40.7-226.6-9.1-328.4c-46.8-95.7-132.8-171.7-233.4-206.5
		c-12.3-4.3-24.8-7.9-37.5-10.9c-6.3-1.5-8.9,8.2-2.7,9.6c98.1,23.2,185.5,85.8,240.6,170.1c58.1,88.6,75.6,198.2,52,301.2
		c-6.1,26.7-14.9,52.7-26.3,77.6c-9.7-9-21.9-15-35.6-15.4c-23-0.6-40.2,16.1-48.2,36.3c-4.3,10.8-6.2,22.7-6.2,34.3
		c0,11.4,1.5,24.9,7.9,34.6c7.4,11.2,20.7,12.3,31.3,4.9c11.4-8,19.7-21.5,27.5-32.9c9.6-14.1,18.2-28.8,25.8-44
		c1.1,1.6,2.1,3.2,3.1,4.8c14.6,25.6,11.1,58.1,9.3,86.3c-3.4,55-10.4,109.7-22.1,163.6c-22.9,106-64.3,210-133.1,294.8
		c-8.5,10.5-17.5,20.7-26.8,30.6c-4.4,4.7,2.6,11.8,7.1,7.1c80-85,129.6-193.5,157-306.1c14-57.4,22.5-116.2,26.9-175.1
		c2.2-29.9,6.3-62.4-3.3-91.4C4013.9,9062.9,4009.4,9054.5,4003.5,9047.1z M3956.9,9106.4c-5.8,7.9-20.2,30.4-32,20.1
		c-8.1-7-8.7-22.9-8.6-32.8c0.1-19.8,6.6-43.5,24.5-54.5c17.6-10.8,37.4-3.7,50.9,9.6C3981.8,9068.9,3970.2,9088.2,3956.9,9106.4z"
		/>
</g>
<g id="e-006-007">
	<path class="st1" d="M4184.5,8191.4c-64.3-1.7-129.7-3.3-192.7,11.9c-61.4,14.9-117.3,45.9-177.7,63.7
		c-34.5,10.2-70.4,15.9-106.4,11.3c-6.4-0.8-6.3,9.2,0,10c63.6,8,125.1-15.2,182.9-38.7c29.1-11.8,58.2-23.9,88.5-32.6
		c31-8.9,63-13.5,95.2-15.4c36.7-2.2,73.5-1.2,110.2-0.3C4190.9,8201.6,4190.9,8191.6,4184.5,8191.4z"/>
</g>
<g id="e-007-008">
	<path class="st1" d="M5241.6,7571c-38.1,26.1-61.9,67.6-74.3,111.3c-14.8,52.3-13.8,107.4-14.6,161.2c-0.5,29-1.4,58-3,86.9
		c-1.5,27.7-2.8,55.5-6.1,83c-3.2,26.2-10.4,51-24.6,73.4c-13.1,20.7-30.4,38.7-49.3,54c-41.8,33.9-95.1,55-149.4,51.3
		c-6.4-0.4-6.4,9.6,0,10c48.3,3.3,96.3-12.5,136.2-39.3c39.9-26.7,76-65.1,89.8-112c7.7-26.2,9.1-54,11-81.1
		c2-28.9,3.5-57.9,4.4-86.9c1.8-56.3-1.3-113.8,8.7-169.5c9.2-51.3,31.9-103.6,76.2-133.9C5251.9,7576,5246.9,7567.3,5241.6,7571z"
		/>
</g>
<g id="e-008-009">
	<path class="st1" d="M5499.8,7445.8c-5.3-26-16.8-48.7-35.8-67.3c-38.5-37.6-92.6-51.1-133.8-84.6c-21.1-17.1-39.4-40.4-43.1-68.1
		c-0.8-6.3-10.8-6.4-10,0c6.9,53.1,54,84.6,97.7,107.6c45,23.7,96.4,48,111.9,100.8c9.5,32.4,11,68,8.7,101.5c-0.4,6.4,9.6,6.4,10,0
		C5507.5,7505.8,5505.8,7475.3,5499.8,7445.8z"/>
</g>
<g id="e-009-010">
	<path class="st1" d="M5476.1,6148.1c-65.9-0.7-126.2,36.5-163.2,89.7c-40,57.4-54.9,131.5-46.4,200.4c4.5,37,15.9,72.5,25.2,108.5
		c9.6,37.2,15.5,74.9,16,113.4c0.5,36.5-1.4,75.1-18.6,108.1c-8.3,16-18.7,30.7-27.4,46.4c-8.1,14.6-15.3,29.7-21.6,45.2
		c-25.4,62.9-34.8,132.4-26.7,199.7c1,8.4,2.3,16.7,3.8,25.1c1.2,6.3,10.8,3.6,9.6-2.7c-12-65.8-6.6-134.4,14.8-197.8
		c10.9-32.2,26.4-61.6,44.2-90.5c9.1-14.8,17.6-30,22.6-46.8c5-16.6,7.2-34,8.3-51.3c2.4-37.3,0.1-74.9-6.6-111.7
		c-6.5-36-18.1-70.7-26.4-106.2c-8.5-36.2-11.8-73-7.7-110.1c3.7-33.4,13.2-66.6,28.6-96.5c29.4-57.1,82.6-102.7,147.6-111.5
		c7.9-1.1,15.9-1.5,23.8-1.4C5482.5,6158.1,5482.5,6148.1,5476.1,6148.1z"/>
</g>
<g id="e-010-011">
	<path class="st1" d="M6527.5,7582.9c-14.2-36.4-10.7-76.8-25.8-113c-13.6-32.7-37-60.1-62.4-84.4
		c-51.8-49.5-117.4-91.5-138.2-164.2c-12.1-42.4-9.4-87.5-2.5-130.6c1-6.3-8.6-9-9.6-2.7c-6.1,38.4-9,77.8-2,116.3
		c6.8,37.1,24.2,69.8,48.8,98.2c47.1,54.3,114.7,91.2,149.5,155.9c10.3,19.1,15.6,39.6,18.8,61c3.3,22.3,5.4,44.9,13.7,66.1
		C6520.2,7591.5,6529.9,7588.9,6527.5,7582.9z"/>
</g>
<g id="e-011-012">
	<path class="st1" d="M7812,8300c-101.1-9.4-191.3,45.6-282.4,79.8c-47,17.6-95.4,28.5-145.8,28.1c-24.9-0.2-49.7-2.8-74.1-7.8
		c-21.3-4.4-42.4-11-61.2-22c-21.2-12.4-37.2-30.5-48.1-52.4c-10.8-21.7-16.5-45.5-21-69.1c-1.2-6.3-10.8-3.6-9.6,2.7
		c8,42,21.3,86.5,55.6,114.8c35.6,29.3,84.3,38.7,129,42.5c50.8,4.3,101.6-2,150.1-17.5c48.2-15.4,93.6-37.9,140.5-56.6
		c53-21.2,109.5-38,167.1-32.6C7818.4,8310.6,7818.4,8300.6,7812,8300z"/>
</g>
</svg>
